<svg width="62.000000" height="62.000000" viewBox="0 0 62 62" fill="none" xmlns="http://www.w3.org/2000/svg" xmlns:xlink="http://www.w3.org/1999/xlink">
	<desc>
			Created with Pixso.
	</desc>
	<defs/>
	<circle id="Ellipse 361" cx="30.886719" cy="30.886719" r="30.886841" fill="#7E2B86" fill-opacity="1.000000"/>
	<path id="Vector" d="M48.41 31.48C48.41 33.86 48.36 36.25 48.42 38.62C48.53 42.83 45.88 46.08 42.51 47.53C41.16 48.11 39.74 48.42 38.27 48.42C33.67 48.43 29.07 48.49 24.47 48.4C21.01 48.33 18.16 46.88 16.12 44.03C15.04 42.52 14.53 40.82 14.53 38.96C14.53 34.07 14.53 29.17 14.53 24.28C14.53 20.28 16.48 17.48 19.93 15.67C21.44 14.88 23.07 14.55 24.77 14.54C29.23 14.54 33.7 14.51 38.16 14.55C41.63 14.58 44.52 15.91 46.65 18.69C47.84 20.25 48.41 22.04 48.41 24.01C48.41 26.5 48.41 28.99 48.41 31.48ZM17.05 31.48C17.05 33.99 17.05 36.49 17.05 39C17.05 40.12 17.31 41.17 17.89 42.12C19.41 44.61 21.72 45.83 24.57 45.88C29.16 45.95 33.75 45.91 38.34 45.89C39.47 45.89 40.56 45.66 41.58 45.17C44.35 43.85 45.9 41.74 45.89 38.57C45.86 33.72 45.88 28.87 45.88 24.02C45.88 22.64 45.49 21.38 44.68 20.28C43.11 18.15 40.94 17.11 38.34 17.08C33.76 17.03 29.19 17.06 24.61 17.07C23.63 17.07 22.69 17.27 21.77 17.61C19.26 18.54 16.92 20.91 17.03 24.4C17.11 26.77 17.05 29.13 17.05 31.48Z" fill="#FFFFFF" fill-opacity="1.000000" fill-rule="evenodd"/>
	<path id="Vector" d="M31.51 38.73C27.1 38.73 23.55 35.21 23.54 30.84C23.53 26.54 27.11 23.01 31.49 23.01C35.89 23 39.45 26.52 39.46 30.86C39.46 35.19 35.9 38.72 31.51 38.73ZM31.51 36.2C34.51 36.2 36.94 33.8 36.93 30.85C36.93 27.92 34.49 25.53 31.51 25.53C28.51 25.53 26.06 27.92 26.06 30.86C26.07 33.81 28.51 36.2 31.51 36.2Z" fill="#FFFFFF" fill-opacity="1.000000" fill-rule="evenodd"/>
	<path id="Vector" d="M40.38 20.62C41.3 20.62 42.06 21.41 42.06 22.37C42.05 23.33 41.29 24.11 40.37 24.1C39.46 24.1 38.72 23.32 38.72 22.38C38.71 21.41 39.46 20.62 40.38 20.62Z" fill="#FFFFFF" fill-opacity="1.000000" fill-rule="evenodd"/>
</svg>
