<svg width="30.000000" height="25.000000" viewBox="0 0 30 25" fill="none" xmlns="http://www.w3.org/2000/svg" xmlns:xlink="http://www.w3.org/1999/xlink">
	<desc>
			Created with Pixso.
	</desc>
	<defs/>
	<path id="Vector" d="M-0.14 10.79C2.96 9.08 6.42 7.66 9.65 6.23C15.21 3.88 20.79 1.58 26.43 -0.56C27.52 -0.93 29.5 -1.29 29.69 0.34C29.58 2.64 29.15 4.93 28.85 7.21C28.09 12.24 27.22 17.26 26.36 22.27C26.07 23.94 23.97 24.8 22.64 23.73C19.42 21.56 16.18 19.41 13 17.19C11.96 16.13 12.93 14.61 13.86 13.86C16.51 11.25 19.32 9.03 21.83 6.28C22.5 4.65 20.5 6.02 19.84 6.45C16.21 8.95 12.68 11.6 8.85 13.8C6.9 14.87 4.62 13.95 2.67 13.35C0.92 12.63 -1.64 11.9 -0.14 10.79Z" fill="#FFFFFF" fill-opacity="1.000000" fill-rule="nonzero"/>
</svg>
