<svg width="62.000000" height="62.000000" viewBox="0 0 62 62" fill="none" xmlns="http://www.w3.org/2000/svg" xmlns:xlink="http://www.w3.org/1999/xlink">
	<desc>
			Created with Pixso.
	</desc>
	<defs/>
	<path id="Vector" d="M30.47 61.47C47.45 61.47 61.21 47.71 61.21 30.73C61.21 13.76 47.45 0 30.47 0C13.5 0 -0.26 13.76 -0.26 30.73C-0.26 47.71 13.5 61.47 30.47 61.47Z" fill="#7E2B86" fill-opacity="1.000000" fill-rule="nonzero"/>
	<path id="Vector" d="M11.18 32.23C14.78 30.25 18.79 28.6 22.53 26.94C28.98 24.22 35.45 21.55 41.99 19.06C43.26 18.64 45.55 18.22 45.77 20.11C45.65 22.78 45.15 25.43 44.8 28.08C43.92 33.92 42.91 39.73 41.91 45.54C41.57 47.48 39.15 48.48 37.59 47.24C33.86 44.72 30.1 42.23 26.42 39.65C25.22 38.42 26.33 36.66 27.41 35.79C30.48 32.76 33.74 30.19 36.65 27C37.44 25.11 35.12 26.7 34.35 27.19C30.15 30.09 26.04 33.17 21.61 35.72C19.34 36.96 16.7 35.9 14.44 35.2C12.41 34.36 9.43 33.51 11.18 32.23Z" fill="#FFFFFF" fill-opacity="1.000000" fill-rule="nonzero"/>
</svg>
