<svg width="62.000000" height="62.000000" viewBox="0 0 62 62" fill="none" xmlns="http://www.w3.org/2000/svg" xmlns:xlink="http://www.w3.org/1999/xlink">
	<desc>
			Created with Pixso.
	</desc>
	<defs/>
	<circle id="Ellipse 360" cx="30.491211" cy="30.928467" r="23.815161" fill="#FFFFFF" fill-opacity="1.000000"/>
	<path id="Vector" d="M30.49 0C13.57 0 -0.13 13.77 -0.13 30.77C-0.13 47.77 13.57 61.54 30.49 61.54C47.4 61.54 61.11 47.77 61.11 30.77C61.11 13.77 47.4 0 30.49 0ZM46.94 42.45C45.64 43.27 40.33 43.51 39.04 42.57C38.33 42.06 37.69 41.42 37.08 40.8C36.65 40.37 36.16 40.17 35.79 39.7C35.49 39.32 35.29 38.87 34.97 38.49C34.44 37.86 33.62 37.33 32.97 38.1C31.99 39.26 33.12 41.53 31.81 42.4C31.38 42.69 30.93 42.77 30.39 42.73L29.18 42.79C28.46 42.8 27.34 42.81 26.53 42.66C25.62 42.5 24.88 42 24.06 41.64C22.51 40.95 21.03 40.01 19.91 38.7C16.85 35.15 12.74 30.26 11.14 25.79C10.81 24.87 9.94 23.06 10.77 22.27C11.88 21.45 17.37 21.22 18.23 22.49C18.58 23 18.8 23.75 19.04 24.33C19.35 25.06 19.52 25.74 19.99 26.38C20.42 26.95 20.73 27.52 21.06 28.15C21.43 28.85 21.77 29.52 22.22 30.17C22.53 30.6 23.33 31.48 23.84 31.54C25.08 31.7 25 28.68 24.91 27.94C24.82 27.22 24.8 26.47 24.82 25.75C24.84 25.13 24.89 24.26 24.53 23.76C23.94 22.94 22.62 23.55 22.52 22.45C22.74 22.14 22.69 21.86 24.14 21.38C25.29 21 26.03 21.01 26.78 21.07C28.32 21.2 29.95 20.78 31.44 21.28C32.86 21.76 32.64 23.79 32.59 25C32.53 26.66 32.6 28.28 32.59 29.96C32.59 30.73 32.56 31.48 33.49 31.41C34.36 31.36 34.45 30.62 34.87 30.01C35.44 29.16 35.98 28.3 36.56 27.46C37.36 26.32 37.6 25.03 38.35 23.86C38.61 23.44 38.84 22.55 39.26 22.22C39.57 21.97 40.16 22.1 40.54 22.1L41.43 22.1C42.12 22.1 42.82 22.1 43.53 22.12C44.54 22.16 45.68 21.92 46.69 22.07C51.04 22.68 41.22 32.03 41.74 33.69C42.09 34.85 44.33 36.13 45.13 37.08C46.21 38.33 49.51 40.83 46.94 42.45Z" fill="#7E2B86" fill-opacity="1.000000" fill-rule="nonzero"/>
</svg>
